<svg id="Capa_1" enable-background="new 0 0 512 512" height="512" viewBox="0 0 512 512" width="512" xmlns="http://www.w3.org/2000/svg"><g><circle cx="256" cy="256" fill="#0052be" r="256"/><path d="m256 0v512c141.385 0 256-114.615 256-256s-114.615-256-256-256z" fill="#00337a"/><g><g><path d="m356 371h-200c-8.284 0-15-6.716-15-15v-200c0-8.284 6.716-15 15-15h200c8.284 0 15 6.716 15 15v200c0 8.284-6.716 15-15 15z" fill="#ff6b6b"/></g><path d="m356 141h-100v230h100c8.284 0 15-6.716 15-15v-200c0-8.284-6.716-15-15-15z" fill="#ff1f3d"/></g></g></svg>